<?xml version="1.0" standalone="no"?>
<!DOCTYPE svg PUBLIC "-//W3C//DTD SVG 20010904//EN"
 "http://www.w3.org/TR/2001/REC-SVG-20010904/DTD/svg10.dtd">
<svg version="1.0" xmlns="http://www.w3.org/2000/svg"
 width="700.000000pt" height="700.000000pt" viewBox="0 0 700.000000 700.000000"
 preserveAspectRatio="xMidYMid meet">
<metadata>
Created by potrace 1.14, written by Peter Selinger 2001-2017
</metadata>
<g transform="translate(0.000000,700.000000) scale(0.100000,-0.100000)"
fill="#000000" stroke="none">
<path d="M3305 6994 c-633 -42 -1224 -238 -1730 -575 -364 -243 -661 -527
-917 -879 -607 -834 -808 -1934 -538 -2945 229 -861 792 -1613 1555 -2081 439
-269 920 -432 1460 -496 145 -17 576 -17 730 0 689 77 1334 347 1859 780 127
105 340 316 451 447 335 396 579 867 710 1370 80 308 109 539 109 880 1 262
-9 377 -49 610 -242 1406 -1343 2538 -2740 2820 -93 19 -231 41 -305 50 -134
15 -481 26 -595 19z m1913 -1781 l2 -363 -640 0 -640 0 0 -1725 0 -1725 -440
0 -440 0 0 1725 0 1725 -635 0 -635 0 0 365 0 365 1713 -2 1712 -3 3 -362z"/>
</g>
</svg>
